<?xml version="1.0" encoding="UTF-8" standalone="no"?>
<!-- Created with Inkscape (http://www.inkscape.org/) -->

<svg
   version="1.1"
   id="svg1"
   width="128.90668"
   height="128.90668"
   viewBox="0 0 128.90668 128.90668"
   sodipodi:docname="turkish-airlines-seeklogo.eps"
   xmlns:inkscape="http://www.inkscape.org/namespaces/inkscape"
   xmlns:sodipodi="http://sodipodi.sourceforge.net/DTD/sodipodi-0.dtd"
   xmlns="http://www.w3.org/2000/svg"
   xmlns:svg="http://www.w3.org/2000/svg">
  <defs
     id="defs1" />
  <sodipodi:namedview
     id="namedview1"
     pagecolor="#ffffff"
     bordercolor="#000000"
     borderopacity="0.25"
     inkscape:showpageshadow="2"
     inkscape:pageopacity="0.0"
     inkscape:pagecheckerboard="0"
     inkscape:deskcolor="#d1d1d1">
    <inkscape:page
       x="0"
       y="0"
       inkscape:label="1"
       id="page1"
       width="128.90668"
       height="128.90668"
       margin="0"
       bleed="0" />
  </sodipodi:namedview>
  <g
     id="g1"
     inkscape:groupmode="layer"
     inkscape:label="1">
    <g
       id="group-R5">
      <path
         id="path2"
         d="M 355.805,472.828 C 396.281,624.961 350.09,784.395 239.613,868.887 89.1328,773.633 2.34766,594.48 33.7031,407.859 44.0352,346.172 66.4102,289.488 97.9023,239.793 215.559,272.559 319.016,334.59 355.805,472.828 Z M 558.918,33.7695 C 807.297,75.457 974.77,310.613 933.02,558.926 898.313,765.574 729.809,916.199 531.125,937 c -40.117,4.219 -81.543,3.066 -123.32,-3.926 -49.532,-8.301 -95.723,-24.402 -137.801,-46.719 218.906,-74.246 336.609,-187.109 344.754,-302.742 4.023,-71.41 -29.16,-123.047 -72.781,-165.136 l 309.539,21.621 c 8.761,0.593 11.504,-9.59 0.898,-12.637 L 114.125,215.77 C 189.262,112.266 306,43.3984 435.598,29.8516 c 40.117,-4.2188 81.543,-3.1328 123.32,3.9179 z M 533.977,964.18 C 777.133,938.875 966.762,733.406 966.84,483.594 966.938,216.609 750.57,0.0976563 483.586,0 216.605,-0.0898438 0.0898438,216.27 0.00390625,483.25 -0.09375,750.242 216.273,966.746 483.254,966.844 c 17.109,0.011 34.035,-0.938 50.723,-2.664"
         style="fill:#ffffff;fill-opacity:1;fill-rule:nonzero;stroke:none"
         transform="matrix(0.13333333,0,0,-0.13333333,0,128.90667)" />
      <path
         id="path3"
         d="M 33.7031,407.859 C 44.0352,346.172 66.4102,289.488 97.9023,239.793 215.559,272.559 319.016,334.59 355.805,472.828 396.281,624.961 350.09,784.395 239.613,868.887 89.1328,773.633 2.34766,594.48 33.7031,407.859 Z M 933.02,558.926 C 974.77,310.613 807.297,75.457 558.918,33.7695 517.141,26.7188 475.715,25.6328 435.598,29.8516 306,43.3984 189.262,112.266 114.125,215.77 l 738.289,211.691 c 10.606,3.047 7.863,13.23 -0.898,12.637 L 541.977,418.477 c 43.621,42.089 76.804,93.726 72.781,165.136 -8.145,115.633 -125.848,228.496 -344.754,302.742 42.078,22.317 88.269,38.418 137.801,46.719 41.777,6.992 83.203,8.145 123.32,3.926 C 729.809,916.199 898.313,765.574 933.02,558.926"
         style="fill:#cf181f;fill-opacity:1;fill-rule:nonzero;stroke:none"
         transform="matrix(0.13333333,0,0,-0.13333333,0,128.90667)" />
    </g>
  </g>
</svg>
